<?xml version="1.0" encoding="utf-8" standalone="no"?>
<svg xmlns:xlink="http://www.w3.org/1999/xlink" width="1480" height="370" viewBox="0 0 1065.6 266.4" xmlns="http://www.w3.org/2000/svg" version="1.1">
 <defs>
  <linearGradient id="gradGN" x1="0" y1="0" x2="0" y2="1">
   <stop offset="0%"   stop-color="#0a0a0a"/>
   <stop offset="32%"  stop-color="#b0b0b0"/>
   <stop offset="55%"  stop-color="#5a5a5a"/>
   <stop offset="100%" stop-color="#0a0a0a"/>
  </linearGradient>
  <style type="text/css">*{stroke-linejoin: round; stroke-linecap: butt}</style>
 </defs>
 <g id="figure_1">
  <g id="patch_1">
   <path d="M 0 266.4 
L 1065.6 266.4 
L 1065.6 0 
L 0 0 
L 0 266.4 
z
" style="fill: none"/>
  </g>
  <g id="axes_1">
   <g id="line2d_1">
    <path d="M 372.15 46.368 
L 372.15 220.032 
" clip-path="url(#p02bca6e0ec)" style="fill: none; stroke: #1a1a1a; stroke-width: 1.6"/>
   </g>
   <g id="text_1">
    <!-- GN -->
    <g style="fill: url(#gradGN)" transform="translate(21.6 186.95) scale(2.15 -2.15)">
     <defs>
      <path id="Lora-Regular-47" d="M 2477 -102 
Q 1837 -102 1344 166 
Q 851 435 576 940 
Q 301 1446 301 2144 
Q 301 2598 438 3030 
Q 576 3462 854 3814 
Q 1133 4166 1552 4374 
Q 1971 4582 2528 4582 
Q 2758 4582 2995 4540 
Q 3232 4499 3453 4419 
Q 3674 4339 3853 4230 
L 3827 4538 
L 4179 4538 
L 4179 3072 
L 3949 3072 
Q 3923 3475 3734 3753 
Q 3546 4032 3245 4179 
Q 2944 4326 2573 4326 
Q 2234 4326 1936 4176 
Q 1638 4026 1411 3754 
Q 1184 3482 1056 3110 
Q 928 2739 928 2291 
Q 928 1690 1145 1216 
Q 1363 742 1750 473 
Q 2138 205 2643 205 
Q 2816 205 3005 237 
Q 3194 269 3382 342 
Q 3571 416 3738 525 
L 3738 1306 
Q 3738 1459 3738 1616 
Q 3738 1773 3738 1926 
Q 3629 1920 3513 1913 
Q 3398 1907 3290 1901 
L 3290 2182 
L 4736 2182 
L 4736 1971 
Q 4557 1971 4461 1878 
Q 4365 1786 4326 1654 
Q 4288 1523 4281 1398 
Q 4275 1274 4275 1210 
L 4275 230 
L 4102 230 
Q 4000 230 3821 192 
Q 3642 154 3411 64 
Q 3213 -13 2950 -57 
Q 2688 -102 2477 -102 
z
" transform="scale(0.015625)"/>
      <path id="Lora-Regular-4e" d="M 3853 -102 
L 1299 3328 
Q 1242 3405 1187 3478 
Q 1133 3552 1075 3629 
L 1069 3629 
L 1088 890 
Q 1088 730 1088 570 
Q 1088 410 1075 256 
Q 1190 262 1305 268 
Q 1421 275 1536 282 
L 1536 0 
L 365 0 
L 365 211 
Q 563 211 649 297 
Q 736 384 761 502 
Q 787 621 787 717 
L 794 3795 
Q 794 3904 794 4013 
Q 794 4122 794 4224 
Q 691 4218 582 4211 
Q 474 4205 365 4198 
L 365 4480 
L 1126 4480 
L 3526 1267 
Q 3610 1158 3690 1049 
Q 3770 941 3853 832 
L 3859 832 
L 3866 3763 
Q 3866 3891 3872 4009 
Q 3878 4128 3885 4224 
Q 3770 4218 3654 4211 
Q 3539 4205 3424 4198 
L 3424 4480 
L 4602 4480 
L 4602 4269 
Q 4365 4262 4275 4160 
Q 4186 4058 4179 3885 
Q 4173 3712 4173 3482 
L 4160 -102 
L 3853 -102 
z
" transform="scale(0.015625)"/>
     </defs>
     <use xlink:href="#Lora-Regular-47"/>
     <use xlink:href="#Lora-Regular-4e" transform="translate(76.099991 0)"/>
    </g>
   </g>
   <g id="text_2">
    <!-- Estudio González Novillo -->
    <g style="fill: #0a0a0a" transform="translate(392.31 122.4) scale(0.54 -0.54)">
     <defs>
      <path id="Lora-Regular-45" d="M 2579 1658 
Q 2579 1939 2502 2060 
Q 2426 2182 2259 2208 
Q 2093 2234 1818 2221 
L 1350 2202 
L 1350 736 
Q 1350 563 1347 441 
Q 1344 320 1331 237 
L 2554 256 
Q 2835 262 3040 348 
Q 3245 435 3360 652 
Q 3475 870 3475 1248 
L 3693 1248 
L 3654 0 
L 352 0 
L 352 211 
Q 595 224 684 323 
Q 774 422 784 598 
Q 794 774 794 998 
L 794 3763 
Q 794 3891 800 4009 
Q 806 4128 813 4224 
Q 698 4218 582 4211 
Q 467 4205 352 4198 
L 352 4480 
L 3430 4480 
L 3462 3360 
L 3251 3360 
Q 3251 3738 3136 3933 
Q 3021 4128 2825 4195 
Q 2630 4262 2387 4256 
L 1837 4243 
Q 1600 4237 1497 4153 
Q 1395 4070 1372 3907 
Q 1350 3744 1350 3482 
L 1350 2458 
L 2554 2451 
L 2509 3002 
L 2790 3002 
L 2790 1658 
L 2579 1658 
z
" transform="scale(0.015625)"/>
      <path id="Lora-Regular-73" d="M 1594 -102 
Q 1274 -102 1024 -16 
Q 774 70 614 179 
L 640 -45 
L 371 -45 
L 333 1056 
L 531 1056 
Q 544 794 678 586 
Q 813 378 1024 262 
Q 1235 147 1478 147 
Q 1645 147 1805 201 
Q 1965 256 2073 368 
Q 2182 480 2182 653 
Q 2182 832 2076 950 
Q 1971 1069 1798 1158 
Q 1626 1248 1427 1325 
Q 1235 1402 1043 1485 
Q 851 1568 688 1683 
Q 525 1798 429 1964 
Q 333 2131 333 2374 
Q 333 2509 384 2669 
Q 435 2829 556 2973 
Q 678 3117 889 3209 
Q 1101 3302 1427 3302 
Q 1600 3302 1811 3244 
Q 2022 3187 2221 3027 
L 2208 3270 
L 2477 3270 
L 2477 2150 
L 2272 2150 
Q 2259 2374 2169 2582 
Q 2080 2790 1907 2928 
Q 1734 3066 1459 3066 
Q 1165 3066 998 2918 
Q 832 2771 832 2579 
Q 832 2381 957 2249 
Q 1082 2118 1280 2022 
Q 1478 1926 1702 1837 
Q 1946 1734 2176 1612 
Q 2406 1491 2553 1308 
Q 2701 1126 2701 838 
Q 2701 518 2537 307 
Q 2374 96 2121 -3 
Q 1869 -102 1594 -102 
z
" transform="scale(0.015625)"/>
      <path id="Lora-Regular-74" d="M 1485 -102 
Q 1338 -102 1184 -60 
Q 1030 -19 899 102 
Q 768 224 691 457 
Q 614 691 614 1075 
L 627 2931 
L 134 2925 
L 134 3200 
Q 301 3206 473 3324 
Q 646 3443 784 3648 
Q 922 3853 973 4096 
L 1190 4096 
L 1190 3200 
L 2266 3200 
L 2266 2950 
L 1190 2938 
L 1178 1158 
Q 1178 870 1226 668 
Q 1274 467 1382 364 
Q 1491 262 1664 262 
Q 1843 262 2000 364 
Q 2157 467 2278 646 
L 2451 506 
Q 2310 294 2172 172 
Q 2035 51 1907 -9 
Q 1779 -70 1670 -86 
Q 1562 -102 1485 -102 
z
" transform="scale(0.015625)"/>
      <path id="Lora-Regular-75" d="M 1632 -102 
Q 1286 -102 1052 26 
Q 819 154 700 461 
Q 582 768 582 1293 
L 582 2432 
Q 582 2534 585 2636 
Q 589 2739 608 2848 
Q 499 2842 387 2838 
Q 275 2835 166 2829 
L 166 3091 
L 365 3091 
Q 640 3091 765 3145 
Q 890 3200 960 3264 
L 1146 3264 
L 1146 1312 
Q 1146 762 1302 490 
Q 1459 218 1837 224 
Q 2080 230 2301 374 
Q 2522 518 2656 717 
L 2656 2362 
Q 2656 2515 2662 2627 
Q 2669 2739 2688 2848 
Q 2573 2842 2457 2838 
Q 2342 2835 2227 2829 
L 2227 3091 
L 2426 3091 
Q 2701 3091 2825 3145 
Q 2950 3200 3021 3264 
L 3206 3264 
L 3200 845 
Q 3200 742 3193 556 
Q 3187 371 3174 243 
Q 3290 250 3405 256 
Q 3520 262 3635 269 
L 3635 0 
L 2720 0 
Q 2701 109 2691 205 
Q 2682 301 2675 384 
Q 2477 186 2195 42 
Q 1914 -102 1632 -102 
z
" transform="scale(0.015625)"/>
      <path id="Lora-Regular-64" d="M 1651 -102 
Q 1261 -102 947 93 
Q 634 288 451 653 
Q 269 1018 269 1510 
Q 269 2035 480 2438 
Q 691 2842 1065 3072 
Q 1440 3302 1914 3302 
Q 2125 3302 2333 3248 
Q 2541 3194 2662 3123 
L 2662 4000 
Q 2662 4102 2665 4195 
Q 2669 4288 2682 4416 
Q 2566 4410 2454 4403 
Q 2342 4397 2227 4390 
L 2227 4659 
Q 2509 4659 2662 4684 
Q 2816 4710 2896 4748 
Q 2976 4787 3021 4832 
L 3206 4832 
L 3206 678 
Q 3206 576 3200 473 
Q 3194 371 3181 243 
Q 3296 250 3408 256 
Q 3520 262 3635 269 
L 3635 0 
L 2720 0 
Q 2701 96 2691 176 
Q 2682 256 2675 333 
Q 2496 134 2233 16 
Q 1971 -102 1651 -102 
z
M 1882 211 
Q 2093 211 2307 332 
Q 2522 454 2662 634 
Q 2656 710 2656 796 
Q 2656 883 2656 986 
L 2662 2829 
Q 2509 2944 2326 2998 
Q 2144 3053 1952 3053 
Q 1632 3053 1395 2867 
Q 1158 2682 1036 2349 
Q 915 2016 928 1568 
Q 941 1178 1053 870 
Q 1165 563 1373 387 
Q 1581 211 1882 211 
z
" transform="scale(0.015625)"/>
      <path id="Lora-Regular-69" d="M 282 192 
Q 480 192 557 291 
Q 634 390 646 566 
Q 659 742 659 973 
L 659 2432 
Q 659 2534 665 2627 
Q 672 2720 685 2848 
Q 570 2842 458 2835 
Q 346 2829 230 2822 
L 230 3091 
Q 512 3091 665 3116 
Q 819 3142 899 3180 
Q 979 3219 1024 3264 
L 1210 3264 
L 1210 678 
Q 1210 550 1206 451 
Q 1203 352 1184 243 
Q 1286 250 1385 253 
Q 1485 256 1587 262 
L 1587 0 
L 282 0 
L 282 192 
z
M 898 3898 
Q 763 3898 660 4006 
Q 558 4115 558 4275 
Q 558 4435 664 4547 
Q 770 4659 904 4659 
Q 1051 4659 1150 4547 
Q 1250 4435 1250 4275 
Q 1250 4115 1144 4006 
Q 1038 3898 898 3898 
z
" transform="scale(0.015625)"/>
      <path id="Lora-Regular-6f" d="M 1869 -102 
Q 1421 -102 1056 106 
Q 691 314 476 682 
Q 262 1050 262 1523 
Q 262 2029 473 2432 
Q 685 2835 1049 3068 
Q 1414 3302 1869 3302 
Q 2317 3302 2681 3088 
Q 3046 2874 3264 2509 
Q 3482 2144 3482 1677 
Q 3482 1184 3267 777 
Q 3053 371 2688 134 
Q 2323 -102 1869 -102 
z
M 1920 154 
Q 2259 154 2457 346 
Q 2656 538 2742 845 
Q 2829 1152 2829 1491 
Q 2829 1779 2774 2057 
Q 2720 2336 2605 2563 
Q 2490 2790 2307 2924 
Q 2125 3059 1869 3059 
Q 1536 3059 1325 2867 
Q 1114 2675 1014 2368 
Q 915 2061 915 1709 
Q 915 1312 1024 957 
Q 1133 602 1357 378 
Q 1581 154 1920 154 
z
" transform="scale(0.015625)"/>
      <path id="Lora-Regular-20" transform="scale(0.015625)"/>
      <path id="Lora-Regular-6e" d="M 282 0 
L 282 192 
Q 480 192 557 291 
Q 634 390 646 566 
Q 659 742 659 973 
L 666 2432 
Q 666 2534 669 2636 
Q 672 2739 691 2848 
Q 576 2842 464 2835 
Q 352 2829 237 2822 
L 237 3091 
Q 518 3091 662 3116 
Q 806 3142 876 3180 
Q 947 3219 992 3264 
L 1178 3264 
Q 1184 3219 1187 3161 
Q 1190 3104 1196 3033 
Q 1203 2963 1203 2874 
Q 1344 2995 1513 3091 
Q 1683 3187 1872 3244 
Q 2061 3302 2246 3302 
Q 2803 3302 3059 2953 
Q 3315 2605 3315 1869 
L 3315 678 
Q 3315 550 3312 451 
Q 3309 352 3290 243 
Q 3392 250 3491 253 
Q 3590 256 3693 262 
L 3693 0 
L 2387 0 
L 2387 192 
Q 2586 192 2662 291 
Q 2739 390 2752 566 
Q 2765 742 2765 973 
L 2765 1869 
Q 2758 2419 2582 2700 
Q 2406 2982 2029 2976 
Q 1798 2970 1577 2854 
Q 1357 2739 1210 2560 
Q 1216 2509 1216 2445 
Q 1216 2381 1216 2310 
L 1210 678 
Q 1210 550 1206 451 
Q 1203 352 1184 243 
Q 1286 250 1385 253 
Q 1485 256 1587 262 
L 1587 0 
L 282 0 
z
" transform="scale(0.015625)"/>
      <path id="Lora-Regular-7a" d="M 256 0 
L 256 262 
L 2042 2560 
Q 2144 2688 2243 2813 
Q 2342 2938 2406 2976 
L 1203 2957 
Q 966 2957 835 2832 
Q 704 2707 646 2505 
Q 589 2304 550 2054 
L 352 2054 
L 429 3200 
L 2938 3200 
L 2938 2995 
L 1133 621 
Q 1050 518 986 441 
Q 922 365 800 262 
L 2035 243 
Q 2304 243 2457 364 
Q 2611 486 2688 697 
Q 2765 909 2803 1165 
L 2989 1165 
L 2912 0 
L 256 0 
z
" transform="scale(0.015625)"/>
      <path id="Lora-Regular-e1" d="M 2227 0 
Q 2208 109 2201 192 
Q 2195 275 2182 365 
Q 1965 147 1712 22 
Q 1459 -102 1178 -102 
Q 691 -102 454 118 
Q 218 339 218 659 
Q 218 954 400 1168 
Q 582 1382 873 1520 
Q 1165 1658 1507 1725 
Q 1850 1792 2170 1786 
L 2170 2182 
Q 2170 2406 2131 2604 
Q 2093 2803 1965 2931 
Q 1837 3059 1555 3066 
Q 1370 3072 1174 2995 
Q 979 2918 890 2733 
Q 941 2682 957 2614 
Q 973 2547 973 2490 
Q 973 2413 909 2313 
Q 845 2214 685 2221 
Q 550 2221 480 2313 
Q 410 2406 410 2534 
Q 410 2752 573 2925 
Q 736 3098 1024 3200 
Q 1312 3302 1677 3302 
Q 2214 3302 2470 3017 
Q 2726 2733 2720 2118 
Q 2720 1882 2720 1642 
Q 2720 1402 2717 1162 
Q 2714 922 2714 678 
Q 2714 576 2707 473 
Q 2701 371 2688 243 
Q 2803 250 2915 256 
Q 3027 262 3142 269 
L 3142 0 
L 2227 0 
z
M 2170 1568 
Q 1952 1562 1712 1514 
Q 1472 1466 1270 1370 
Q 1069 1274 944 1117 
Q 819 960 826 736 
Q 838 499 982 380 
Q 1126 262 1325 262 
Q 1587 262 1782 361 
Q 1978 461 2170 640 
Q 2163 710 2163 793 
Q 2163 877 2163 966 
Q 2163 998 2166 1171 
Q 2170 1344 2170 1568 
z
M 1267 3904 
L 1088 4051 
L 1626 4915 
Q 1722 5056 1811 5078 
Q 1901 5101 1965 5075 
Q 2029 5050 2042 5037 
Q 2067 5018 2099 4954 
Q 2131 4890 2115 4797 
Q 2099 4704 1984 4582 
L 1267 3904 
z
" transform="scale(0.015625)"/>
      <path id="Lora-Regular-6c" d="M 218 192 
Q 416 192 493 291 
Q 570 390 582 566 
Q 595 742 595 973 
L 595 4000 
Q 595 4102 598 4195 
Q 602 4288 614 4416 
Q 499 4410 387 4403 
Q 275 4397 160 4390 
L 160 4659 
Q 442 4659 598 4684 
Q 755 4710 835 4748 
Q 915 4787 960 4832 
L 1146 4832 
L 1152 678 
Q 1152 550 1145 451 
Q 1139 352 1120 243 
Q 1222 250 1321 253 
Q 1421 256 1523 262 
L 1523 0 
L 218 0 
L 218 192 
z
" transform="scale(0.015625)"/>
      <path id="Lora-Regular-65" d="M 1830 -102 
Q 1389 -102 1033 106 
Q 678 314 473 694 
Q 269 1075 269 1594 
Q 269 2042 470 2432 
Q 672 2822 1037 3062 
Q 1402 3302 1882 3302 
Q 2150 3302 2384 3216 
Q 2618 3130 2797 2954 
Q 2976 2778 3078 2512 
Q 3181 2246 3181 1888 
L 928 1850 
Q 928 1363 1033 995 
Q 1139 627 1376 425 
Q 1613 224 1984 224 
Q 2182 224 2390 294 
Q 2598 365 2777 486 
Q 2957 608 3066 755 
L 3219 627 
Q 3046 358 2803 198 
Q 2560 38 2304 -32 
Q 2048 -102 1830 -102 
z
M 947 2118 
L 2579 2118 
Q 2579 2349 2512 2563 
Q 2445 2778 2291 2915 
Q 2138 3053 1888 3053 
Q 1517 3053 1270 2832 
Q 1024 2611 947 2118 
z
" transform="scale(0.015625)"/>
      <path id="Lora-Regular-76" d="M 1498 -19 
L 582 2067 
Q 480 2310 422 2483 
Q 365 2656 342 2771 
Q 320 2886 314 2957 
L 38 2938 
L 38 3200 
L 1216 3200 
L 1216 3008 
Q 1024 3008 969 2909 
Q 915 2810 953 2646 
Q 992 2483 1069 2298 
L 1562 1171 
Q 1613 1062 1661 944 
Q 1709 826 1754 698 
L 1760 698 
Q 1792 794 1833 902 
Q 1875 1011 1907 1114 
L 2419 2515 
Q 2470 2669 2528 2784 
Q 2586 2899 2611 2957 
L 2202 2938 
L 2202 3200 
L 3213 3200 
L 3213 3008 
Q 3072 3008 2976 2912 
Q 2880 2816 2793 2624 
Q 2707 2432 2592 2144 
L 1754 -19 
L 1498 -19 
z
" transform="scale(0.015625)"/>
     </defs>
     <use xlink:href="#Lora-Regular-45"/>
     <use xlink:href="#Lora-Regular-73" transform="translate(62.199997 0)"/>
     <use xlink:href="#Lora-Regular-74" transform="translate(108.499985 0)"/>
     <use xlink:href="#Lora-Regular-75" transform="translate(147.199982 0)"/>
     <use xlink:href="#Lora-Regular-64" transform="translate(206.899979 0)"/>
     <use xlink:href="#Lora-Regular-69" transform="translate(266.699966 0)"/>
     <use xlink:href="#Lora-Regular-6f" transform="translate(294.799957 0)"/>
     <use xlink:href="#Lora-Regular-20" transform="translate(353.299942 0)"/>
     <use xlink:href="#Lora-Regular-47" transform="translate(379.59993 0)"/>
     <use xlink:href="#Lora-Regular-6f" transform="translate(455.699921 0)"/>
     <use xlink:href="#Lora-Regular-6e" transform="translate(514.199905 0)"/>
     <use xlink:href="#Lora-Regular-7a" transform="translate(574.899902 0)"/>
     <use xlink:href="#Lora-Regular-e1" transform="translate(625.999893 0)"/>
     <use xlink:href="#Lora-Regular-6c" transform="translate(677.599884 0)"/>
     <use xlink:href="#Lora-Regular-65" transform="translate(704.799881 0)"/>
     <use xlink:href="#Lora-Regular-7a" transform="translate(758.999878 0)"/>
     <use xlink:href="#Lora-Regular-20" transform="translate(810.099869 0)"/>
     <use xlink:href="#Lora-Regular-4e" transform="translate(836.399857 0)"/>
     <use xlink:href="#Lora-Regular-6f" transform="translate(912.599838 0)"/>
     <use xlink:href="#Lora-Regular-76" transform="translate(971.099823 0)"/>
     <use xlink:href="#Lora-Regular-69" transform="translate(1021.599808 0)"/>
     <use xlink:href="#Lora-Regular-6c" transform="translate(1049.699799 0)"/>
     <use xlink:href="#Lora-Regular-6c" transform="translate(1076.899796 0)"/>
     <use xlink:href="#Lora-Regular-6f" transform="translate(1104.099792 0)"/>
    </g>
   </g>
   <g id="text_3">
    <!-- D e f e n s a   P e n a l   E s t r a t é g i c a -->
    <g style="fill: #1a1a1a" transform="translate(392.31 166.80375) scale(0.25 -0.25)">
     <defs>
      <path id="Poppins-Regular-44" d="M 1882 4461 
Q 2611 4461 3145 4189 
Q 3680 3917 3965 3411 
Q 4250 2906 4250 2221 
Q 4250 1536 3965 1033 
Q 3680 531 3145 265 
Q 2611 0 1882 0 
L 493 0 
L 493 4461 
L 1882 4461 
z
M 1882 480 
Q 2746 480 3200 937 
Q 3654 1395 3654 2221 
Q 3654 3053 3196 3520 
Q 2739 3987 1882 3987 
L 1075 3987 
L 1075 480 
L 1882 480 
z
" transform="scale(0.015625)"/>
      <path id="Poppins-Regular-20" transform="scale(0.015625)"/>
      <path id="Poppins-Regular-65" d="M 3693 1888 
Q 3693 1722 3674 1536 
L 870 1536 
Q 902 1018 1225 726 
Q 1549 435 2010 435 
Q 2387 435 2640 611 
Q 2893 787 2995 1082 
L 3622 1082 
Q 3482 576 3059 259 
Q 2637 -58 2010 -58 
Q 1510 -58 1116 166 
Q 723 390 499 803 
Q 275 1216 275 1760 
Q 275 2304 492 2713 
Q 710 3123 1104 3344 
Q 1498 3565 2010 3565 
Q 2509 3565 2893 3347 
Q 3277 3130 3485 2749 
Q 3693 2368 3693 1888 
z
M 3091 2010 
Q 3091 2342 2944 2582 
Q 2797 2822 2544 2947 
Q 2291 3072 1984 3072 
Q 1542 3072 1232 2790 
Q 922 2509 877 2010 
L 3091 2010 
z
" transform="scale(0.015625)"/>
      <path id="Poppins-Regular-66" d="M 1920 3027 
L 1184 3027 
L 1184 0 
L 602 0 
L 602 3027 
L 147 3027 
L 147 3507 
L 602 3507 
L 602 3757 
Q 602 4346 906 4618 
Q 1210 4890 1882 4890 
L 1882 4403 
Q 1498 4403 1341 4252 
Q 1184 4102 1184 3757 
L 1184 3507 
L 1920 3507 
L 1920 3027 
z
" transform="scale(0.015625)"/>
      <path id="Poppins-Regular-6e" d="M 2202 3571 
Q 2842 3571 3238 3184 
Q 3635 2797 3635 2067 
L 3635 0 
L 3059 0 
L 3059 1984 
Q 3059 2509 2796 2787 
Q 2534 3066 2080 3066 
Q 1619 3066 1347 2778 
Q 1075 2490 1075 1939 
L 1075 0 
L 493 0 
L 493 3507 
L 1075 3507 
L 1075 3008 
Q 1248 3277 1545 3424 
Q 1843 3571 2202 3571 
z
" transform="scale(0.015625)"/>
      <path id="Poppins-Regular-73" d="M 1734 -58 
Q 1331 -58 1011 80 
Q 691 218 505 464 
Q 320 710 301 1030 
L 902 1030 
Q 928 768 1149 601 
Q 1370 435 1728 435 
Q 2061 435 2253 582 
Q 2445 730 2445 954 
Q 2445 1184 2240 1296 
Q 2035 1408 1606 1517 
Q 1216 1619 969 1724 
Q 723 1830 547 2038 
Q 371 2246 371 2586 
Q 371 2854 531 3078 
Q 691 3302 985 3433 
Q 1280 3565 1658 3565 
Q 2240 3565 2598 3270 
Q 2957 2976 2982 2464 
L 2400 2464 
Q 2381 2739 2179 2905 
Q 1978 3072 1638 3072 
Q 1325 3072 1139 2937 
Q 954 2803 954 2586 
Q 954 2413 1066 2301 
Q 1178 2189 1347 2121 
Q 1517 2054 1818 1971 
Q 2195 1869 2432 1769 
Q 2669 1670 2838 1472 
Q 3008 1274 3014 954 
Q 3014 666 2854 435 
Q 2694 205 2403 73 
Q 2112 -58 1734 -58 
z
" transform="scale(0.015625)"/>
      <path id="Poppins-Regular-61" d="M 275 1766 
Q 275 2304 492 2710 
Q 710 3117 1091 3341 
Q 1472 3565 1939 3565 
Q 2400 3565 2739 3366 
Q 3078 3168 3245 2867 
L 3245 3507 
L 3834 3507 
L 3834 0 
L 3245 0 
L 3245 653 
Q 3072 346 2729 144 
Q 2387 -58 1933 -58 
Q 1466 -58 1088 172 
Q 710 403 492 819 
Q 275 1235 275 1766 
z
M 3245 1760 
Q 3245 2157 3085 2451 
Q 2925 2746 2653 2902 
Q 2381 3059 2054 3059 
Q 1728 3059 1459 2905 
Q 1190 2752 1030 2457 
Q 870 2163 870 1766 
Q 870 1363 1030 1065 
Q 1190 768 1459 611 
Q 1728 454 2054 454 
Q 2381 454 2653 611 
Q 2925 768 3085 1065 
Q 3245 1363 3245 1760 
z
" transform="scale(0.015625)"/>
      <path id="Poppins-Regular-a0" transform="scale(0.015625)"/>
      <path id="Poppins-Regular-50" d="M 3475 3155 
Q 3475 2598 3094 2230 
Q 2714 1862 1933 1862 
L 1075 1862 
L 1075 0 
L 493 0 
L 493 4461 
L 1933 4461 
Q 2688 4461 3081 4096 
Q 3475 3731 3475 3155 
z
M 1933 2342 
Q 2419 2342 2649 2553 
Q 2880 2765 2880 3155 
Q 2880 3981 1933 3981 
L 1075 3981 
L 1075 2342 
L 1933 2342 
z
" transform="scale(0.015625)"/>
      <path id="Poppins-Regular-6c" d="M 1075 4736 
L 1075 0 
L 493 0 
L 493 4736 
L 1075 4736 
z
" transform="scale(0.015625)"/>
      <path id="Poppins-Regular-45" d="M 1075 3987 
L 1075 2496 
L 2701 2496 
L 2701 2016 
L 1075 2016 
L 1075 480 
L 2893 480 
L 2893 0 
L 493 0 
L 493 4467 
L 2893 4467 
L 2893 3987 
L 1075 3987 
z
" transform="scale(0.015625)"/>
      <path id="Poppins-Regular-74" d="M 1203 3027 
L 1203 960 
Q 1203 704 1312 598 
Q 1421 493 1690 493 
L 2118 493 
L 2118 0 
L 1594 0 
Q 1107 0 864 224 
Q 621 448 621 960 
L 621 3027 
L 166 3027 
L 166 3507 
L 621 3507 
L 621 4390 
L 1203 4390 
L 1203 3507 
L 2118 3507 
L 2118 3027 
L 1203 3027 
z
" transform="scale(0.015625)"/>
      <path id="Poppins-Regular-72" d="M 1075 2938 
Q 1229 3238 1513 3404 
Q 1798 3571 2208 3571 
L 2208 2970 
L 2054 2970 
Q 1075 2970 1075 1907 
L 1075 0 
L 493 0 
L 493 3507 
L 1075 3507 
L 1075 2938 
z
" transform="scale(0.015625)"/>
      <path id="Poppins-Regular-e9" d="M 3693 1888 
Q 3693 1722 3674 1536 
L 870 1536 
Q 902 1018 1225 726 
Q 1549 435 2010 435 
Q 2387 435 2640 611 
Q 2893 787 2995 1082 
L 3622 1082 
Q 3482 576 3059 259 
Q 2637 -58 2010 -58 
Q 1510 -58 1116 166 
Q 723 390 499 803 
Q 275 1216 275 1760 
Q 275 2304 492 2713 
Q 710 3123 1104 3344 
Q 1498 3565 2010 3565 
Q 2509 3565 2893 3347 
Q 3277 3130 3485 2749 
Q 3693 2368 3693 1888 
z
M 3091 2010 
Q 3091 2342 2944 2582 
Q 2797 2822 2544 2947 
Q 2291 3072 1984 3072 
Q 1542 3072 1232 2790 
Q 922 2509 877 2010 
L 3091 2010 
z
M 2611 4499 
L 1248 3770 
L 1248 4205 
L 2611 5005 
L 2611 4499 
z
" transform="scale(0.015625)"/>
      <path id="Poppins-Regular-67" d="M 1939 3565 
Q 2394 3565 2736 3366 
Q 3078 3168 3245 2867 
L 3245 3507 
L 3834 3507 
L 3834 -77 
Q 3834 -557 3629 -931 
Q 3424 -1306 3043 -1517 
Q 2662 -1728 2157 -1728 
Q 1466 -1728 1005 -1401 
Q 544 -1075 461 -512 
L 1037 -512 
Q 1133 -832 1433 -1027 
Q 1734 -1222 2157 -1222 
Q 2637 -1222 2941 -921 
Q 3245 -621 3245 -77 
L 3245 659 
Q 3072 352 2733 147 
Q 2394 -58 1939 -58 
Q 1472 -58 1091 172 
Q 710 403 492 819 
Q 275 1235 275 1766 
Q 275 2304 492 2710 
Q 710 3117 1091 3341 
Q 1472 3565 1939 3565 
z
M 3245 1760 
Q 3245 2157 3085 2451 
Q 2925 2746 2653 2902 
Q 2381 3059 2054 3059 
Q 1728 3059 1459 2905 
Q 1190 2752 1030 2457 
Q 870 2163 870 1766 
Q 870 1363 1030 1065 
Q 1190 768 1459 611 
Q 1728 454 2054 454 
Q 2381 454 2653 611 
Q 2925 768 3085 1065 
Q 3245 1363 3245 1760 
z
" transform="scale(0.015625)"/>
      <path id="Poppins-Regular-69" d="M 794 4077 
Q 627 4077 512 4192 
Q 397 4307 397 4474 
Q 397 4640 512 4755 
Q 627 4870 794 4870 
Q 954 4870 1066 4755 
Q 1178 4640 1178 4474 
Q 1178 4307 1066 4192 
Q 954 4077 794 4077 
z
M 1075 3507 
L 1075 0 
L 493 0 
L 493 3507 
L 1075 3507 
z
" transform="scale(0.015625)"/>
      <path id="Poppins-Regular-63" d="M 275 1760 
Q 275 2304 492 2710 
Q 710 3117 1097 3341 
Q 1485 3565 1984 3565 
Q 2630 3565 3049 3251 
Q 3469 2938 3603 2381 
L 2976 2381 
Q 2886 2701 2627 2886 
Q 2368 3072 1984 3072 
Q 1485 3072 1177 2729 
Q 870 2387 870 1760 
Q 870 1126 1177 780 
Q 1485 435 1984 435 
Q 2368 435 2624 614 
Q 2880 794 2976 1126 
L 3603 1126 
Q 3462 589 3040 265 
Q 2618 -58 1984 -58 
Q 1485 -58 1097 166 
Q 710 390 492 800 
Q 275 1210 275 1760 
z
" transform="scale(0.015625)"/>
     </defs>
     <use xlink:href="#Poppins-Regular-44"/>
     <use xlink:href="#Poppins-Regular-20" transform="translate(70.699982 0)"/>
     <use xlink:href="#Poppins-Regular-65" transform="translate(97.399979 0)"/>
     <use xlink:href="#Poppins-Regular-20" transform="translate(159.399963 0)"/>
     <use xlink:href="#Poppins-Regular-66" transform="translate(186.09996 0)"/>
     <use xlink:href="#Poppins-Regular-20" transform="translate(218.999954 0)"/>
     <use xlink:href="#Poppins-Regular-65" transform="translate(245.699951 0)"/>
     <use xlink:href="#Poppins-Regular-20" transform="translate(307.699936 0)"/>
     <use xlink:href="#Poppins-Regular-6e" transform="translate(334.399933 0)"/>
     <use xlink:href="#Poppins-Regular-20" transform="translate(398.399918 0)"/>
     <use xlink:href="#Poppins-Regular-73" transform="translate(425.099915 0)"/>
     <use xlink:href="#Poppins-Regular-20" transform="translate(477.299911 0)"/>
     <use xlink:href="#Poppins-Regular-61" transform="translate(503.999908 0)"/>
     <use xlink:href="#Poppins-Regular-20" transform="translate(571.599899 0)"/>
     <use xlink:href="#Poppins-Regular-a0" transform="translate(598.299896 0)"/>
     <use xlink:href="#Poppins-Regular-20" transform="translate(624.999893 0)"/>
     <use xlink:href="#Poppins-Regular-50" transform="translate(651.69989 0)"/>
     <use xlink:href="#Poppins-Regular-20" transform="translate(709.599884 0)"/>
     <use xlink:href="#Poppins-Regular-65" transform="translate(736.299881 0)"/>
     <use xlink:href="#Poppins-Regular-20" transform="translate(798.299866 0)"/>
     <use xlink:href="#Poppins-Regular-6e" transform="translate(824.999863 0)"/>
     <use xlink:href="#Poppins-Regular-20" transform="translate(888.999847 0)"/>
     <use xlink:href="#Poppins-Regular-61" transform="translate(915.699844 0)"/>
     <use xlink:href="#Poppins-Regular-20" transform="translate(983.299835 0)"/>
     <use xlink:href="#Poppins-Regular-6c" transform="translate(1009.999832 0)"/>
     <use xlink:href="#Poppins-Regular-20" transform="translate(1034.599823 0)"/>
     <use xlink:href="#Poppins-Regular-a0" transform="translate(1061.29982 0)"/>
     <use xlink:href="#Poppins-Regular-20" transform="translate(1087.999817 0)"/>
     <use xlink:href="#Poppins-Regular-45" transform="translate(1114.699814 0)"/>
     <use xlink:href="#Poppins-Regular-20" transform="translate(1165.999802 0)"/>
     <use xlink:href="#Poppins-Regular-73" transform="translate(1192.699799 0)"/>
     <use xlink:href="#Poppins-Regular-20" transform="translate(1244.899796 0)"/>
     <use xlink:href="#Poppins-Regular-74" transform="translate(1271.599792 0)"/>
     <use xlink:href="#Poppins-Regular-20" transform="translate(1307.999786 0)"/>
     <use xlink:href="#Poppins-Regular-72" transform="translate(1334.699783 0)"/>
     <use xlink:href="#Poppins-Regular-20" transform="translate(1371.999771 0)"/>
     <use xlink:href="#Poppins-Regular-61" transform="translate(1398.699768 0)"/>
     <use xlink:href="#Poppins-Regular-20" transform="translate(1466.299759 0)"/>
     <use xlink:href="#Poppins-Regular-74" transform="translate(1492.999756 0)"/>
     <use xlink:href="#Poppins-Regular-20" transform="translate(1529.39975 0)"/>
     <use xlink:href="#Poppins-Regular-e9" transform="translate(1556.099747 0)"/>
     <use xlink:href="#Poppins-Regular-20" transform="translate(1618.099731 0)"/>
     <use xlink:href="#Poppins-Regular-67" transform="translate(1644.799728 0)"/>
     <use xlink:href="#Poppins-Regular-20" transform="translate(1712.399719 0)"/>
     <use xlink:href="#Poppins-Regular-69" transform="translate(1739.099716 0)"/>
     <use xlink:href="#Poppins-Regular-20" transform="translate(1763.699707 0)"/>
     <use xlink:href="#Poppins-Regular-63" transform="translate(1790.399704 0)"/>
     <use xlink:href="#Poppins-Regular-20" transform="translate(1851.099701 0)"/>
     <use xlink:href="#Poppins-Regular-61" transform="translate(1877.799698 0)"/>
    </g>
   </g>
  </g>
 </g>
 <defs>
  <clipPath id="p02bca6e0ec">
   <rect x="0" y="0" width="1065.6" height="266.4"/>
  </clipPath>
 </defs>
</svg>
