<?xml version="1.0" encoding="UTF-8"?>
<svg version="1.1" xmlns="http://www.w3.org/2000/svg" width="1600" height="1052">
<path d="M0 0 C528 0 1056 0 1600 0 C1600 347.16 1600 694.32 1600 1052 C1072 1052 544 1052 0 1052 C0 704.84 0 357.68 0 0 Z " fill="#F3F3F3" transform="translate(0,0)"/>
<path d="M0 0 C0.80909821 -0.00278961 1.61819641 -0.00557922 2.45181274 -0.00845337 C16.38561427 -0.00072868 28.55031167 2.00084132 41.73974609 6.72119141 C45.88357134 8.17691745 50.09668919 9.3966461 54.3125 10.625 C54.3125 11.285 54.3125 11.945 54.3125 12.625 C55.26125 12.934375 56.21 13.24375 57.1875 13.5625 C60.3125 14.625 60.3125 14.625 62.3125 15.625 C62.3125 16.285 62.3125 16.945 62.3125 17.625 C63.0446875 17.73199219 63.776875 17.83898437 64.53125 17.94921875 C72.23740313 19.82164079 78.51219045 26.52277188 84.25 31.75 C84.80558594 32.25249268 85.36117187 32.75498535 85.93359375 33.27270508 C89.03532343 36.16299639 91.19822806 38.977092 93.3125 42.625 C94.3025 43.285 95.2925 43.945 96.3125 44.625 C97.34351947 46.94479381 98.34186517 49.27929915 99.3125 51.625 C100.03566406 52.55505859 100.03566406 52.55505859 100.7734375 53.50390625 C102.57254549 55.98338757 103.45665056 58.28742943 104.4375 61.1875 C104.93636719 62.61255859 104.93636719 62.61255859 105.4453125 64.06640625 C106.60368663 68.81991449 106.86954355 73.75247901 107.3125 78.625 C95.4325 78.625 83.5525 78.625 71.3125 78.625 C70.3225 72.685 70.3225 72.685 69.3125 66.625 C68.3225 65.305 67.3325 63.985 66.3125 62.625 C65.61038106 60.97295544 64.94278587 59.30576231 64.3125 57.625 C63.12199775 54.52413451 63.12199775 54.52413451 60.48046875 52.7265625 C58.06774607 51.50063854 56.46106633 50.04472168 54.5 48.1875 C50.93929355 44.98086004 47.81153609 43.21840862 43.3125 41.625 C43.3125 40.965 43.3125 40.305 43.3125 39.625 C40.6725 39.295 38.0325 38.965 35.3125 38.625 C35.3125 37.635 35.3125 36.645 35.3125 35.625 C34.74402344 35.57601562 34.17554688 35.52703125 33.58984375 35.4765625 C29.87007562 35.11638462 26.47624586 34.67263516 22.875 33.625 C9.21087539 29.78945625 -6.59240735 30.66977633 -20.375 33.375 C-21.18759277 33.53186279 -22.00018555 33.68872559 -22.83740234 33.8503418 C-27.63612298 34.88459159 -31.57474047 36.47404906 -35.89477539 38.78222656 C-39.05921065 40.26985158 -42.15994936 40.1138229 -46 38 C-47.65 38.33 -49.3 38.66 -51 39 C-52.15 34.68 -52.15 34.68 -53 30 C-54.98 23.02 -54.98 23.02 -60 17 C-61.32 17 -62.64 17 -64 17 C-68.3171875 10.40625 -68.3171875 10.40625 -75.28125 4.34375 C-76.29296875 3.40625 -77.30468750 2.46875 -78.375 1.5 C-79.03548279 0.92700807 -79.69596558 0.35401614 -80.38574219 -0.23864746 C-83.97018321 -3.35873506 -87.00378854 -5.29733347 -91.125 -6.5 C-93.125 -6.5 -95.125 -6.5 -97.25 -6.5 C-102.40625 -7.90625 -102.40625 -7.90625 -107.3125 -9 C-119.78125 -11.625 -119.78125 -11.625 -133.0625 -12 C-135.6875 -12.03125 -138.3125 -12.0625 -141 -12.0625 C-147.29101562 -12.09765625 -147.29101562 -12.09765625 -153.73046875 -12.1328125 C-160.8515625 -12.0625 -160.8515625 -12.0625 -167.59375 -11.75 C-189.0625 -10 -189.0625 -10 -210.0625 4 C-212.6875 5 -215.3125 6 -218 7 C-219.66 0.32 -219.66 0.32 -221 -7 C-229 -11 -229 -11 -238 -13 C-239.65 -12.66 -241.3 -12.32 -243 -12 C-246 -11 -246 -11 -249 -10 C-250.32 -10 -251.64 -10 -253 -10 C-258 0 -258 0 -264 12 C-268 18 -268 18 -271 26 C-271.33 26 -271.66 26 -272 26 C-273 24.68 -273 24.68 -274 23 C-279 14.65 -279 14.65 -285 6 C-290 -2.35 -290 -2.35 -295 -10 C-296.35 -11 -297.7 -12 -299 -13 C-304 -15.35 -304 -15.35 -309.25 -17.5 C-312.75 -18.5 -312.75 -18.5 -316.5 -19.75 C-324 -22 -324 -22 -332 -24 C-344 -27.35 -344 -27.35 -356 -30 C-362 -31.32 -362 -31.32 -368 -32 C-368 -31.34 -368 -30.68 -368 -30 C-375 -23.68 -375 -23.68 -384 -13 C-392.25 -4.4 -392.25 -4.4 -400 8 C-401 9.68 -401 9.68 -402 11 C-407.25 10.34 -407.25 10.34 -414 10 C-416 10 -416 10 -418 10 C-420.3 9 -420.3 9 -422.5 8 C-426.26953125 6.078125 -426.26953125 6.078125 -430.53125 4 C-432.59375 3 -432.59375 3 -434.8125 2 C-438.1015625 0.1875 -438.1015625 0.1875 -441.5 -1.5 C-446 -4 -446 -4 -450.5 -6.5 C-451.81 -7 -451.81 -7 -453.25 -7.5 C-454 -6.5 -454 -6.5 -455 -5 C-459.65 4.3 -459.65 4.3 -463 16 C-464 19 -464 19 -465 22 C-463.65 22 -462.3 22 -461 22 C-459 15 -459 15 -457 10 C-455 15 -455 15 -453 22 C-451.65 22 -450.3 22 -449 22 C-450 19 -450 19 -451 16 C-452.65 8.3 -452.65 8.3 -456.5 -3.5 C-458.75 -8.75 -458.75 -8.75 -462 -16 C-463.32 -16 -464.64 -16 -466 -16 C-466 -15.34 -466 -14.68 -466 -14 C-462 -4 -462 -4 -459 8 C-456.75 15.5 -456.75 15.5 -453 24 C-451 28 -451 28 -448 32 C-448 32.66 -448 33.32 -448 34 C-442.67 33.34 -442.67 33.34 -437 33 C-435.65 33 -434.3 33 -433 33 C-434 28 -434 28 -435 24 C-437.67 12.34 -437.67 12.34 -441.5 2 C-443.5 -3.5 -443.5 -3.5 -445 -10 C-446 -13 -446 -13 -447 -16 C-448.32 -16 -449.64 -16 -451 -16 C-451 -15.34 -451 -14.68 -451 -14 C-447 -4.67 -447 -4.67 -444 8 C-441.33 17.34 -441.33 17.34 -437.5 26 C-435.5 30 -435.5 30 -432 35 C-429.5 38.5 -429.5 38.5 -427 41 C-424 44 -424 44 -421 47 C-419 49 -419 49 -417 51 C-415 52.65 -415 52.65 -413 54 C-408.35 57 -408.35 57 -403 60 C-397.5 63 -397.5 63 -392 66 C-390.5 66.65 -390.5 66.65 -389 67 C-387 67 -387 67 -385 67 C-377.5 60.5 -377.5 60.5 -370 52 C-362.5 42.5 -362.5 42.5 -355 32 C-350 25 -350 25 -346 19 C-344 16 -344 16 -342 13 C-341 11.68 -341 11.68 -340 10 C-335.35 -0.3 -335.35 -0.3 -330 -12 C-327.5 -16.5 -327.5 -16.5 -325 -21 C-322.5 -25 -322.5 -25 -320 -29 C-316 -35 -316 -35 -312 -41 C-308.5 -46 -308.5 -46 -305 -50 C-301 -55 -301 -55 -297 -60 C-295 -62.5 -295 -62.5 -293 -65 C-289 -70 -289 -70 -285 -76 C-283 -79 -283 -79 -281 -82 C-278.75 -86 -278.75 -86 -276.5 -90 C-275 -92 -275 -92 -273.5 -94 C-271 -97 -271 -97 -268.5 -101 C-266 -104 -266 -104 -263 -108 C-260.5 -111 -260.5 -111 -258 -114 C-254.5 -119 -254.5 -119 -251 -124 C-248.5 -127.5 -248.5 -127.5 -246 -131 C-243 -135 -243 -135 -239.5 -140 C-237 -143 -237 -143 -234 -147 C-230 -152 -230 -152 -226 -158 C-223.5 -161.5 -223.5 -161.5 -221 -165 C-218 -169 -218 -169 -214.5 -174 C-212 -177 -212 -177 -209.5 -180 C-206.5 -184 -206.5 -184 -203 -189 C-200.5 -192.5 -200.5 -192.5 -198 -196 C-195 -200 -195 -200 -191.5 -205 C-189 -208 -189 -208 -186.5 -211 C-183.5 -215 -183.5 -215 -180 -220 C-177.5 -223.5 -177.5 -223.5 -175 -227 C-172 -231 -172 -231 -168.5 -236 C-166 -239 -166 -239 -163.5 -242 C-160.5 -246 -160.5 -246 -157 -251 C-154.5 -254.5 -154.5 -254.5 -152 -258 C-149 -262 -149 -262 -145.5 -267 C-143 -270 -143 -270 -140.5 -273 C-137.5 -277 -137.5 -277 -134 -282 C-131.5 -285.5 -131.5 -285.5 -129 -289 C-126 -293 -126 -293 -122.5 -298 C-120 -301 -120 -301 -117.5 -304 C-114.5 -308 -114.5 -308 -111 -313 C-108.5 -316.5 -108.5 -316.5 -106 -320 C-103 -324 -103 -324 -99.5 -329 C-97 -332 -97 -332 -94.5 -335 C-91.5 -339 -91.5 -339 -88 -344 C-85.5 -347.5 -85.5 -347.5 -83 -351 C-80 -355 -80 -355 -76.5 -360 C-74 -363 -74 -363 -71.5 -366 C-68.5 -370 -68.5 -370 -65 -375 C-62.5 -378.5 -62.5 -378.5 -60 -382 C-57 -386 -57 -386 -53.5 -391 C-51 -394 -51 -394 -48.5 -397 C-45.5 -401 -45.5 -401 -42 -406 C-39.5 -409.5 -39.5 -409.5 -37 -413 C-34 -417 -34 -417 -30.5 -422 C-28 -425 -28 -425 -25.5 -428 C-22.5 -432 -22.5 -432 -19 -437 C-16.5 -440.5 -16.5 -440.5 -14 -444 C-11 -448 -11 -448 -7.5 -453 C-5 -456 -5 -456 -2.5 -459 C0.5 -463 0.5 -463 4 -468 C6.5 -471.5 6.5 -471.5 9 -475 C12 -479 12 -479 15.5 -484 C18 -487 18 -487 20.5 -490 C23.5 -494 23.5 -494 27 -499 C29.5 -502.5 29.5 -502.5 32 -506 C35 -510 35 -510 38.5 -515 C41 -518 41 -518 43.5 -521 C46.5 -525 46.5 -525 50 -530 C52.5 -533.5 52.5 -533.5 55 -537 C58 -541 58 -541 61.5 -546 C64 -549 64 -549 66.5 -552 C69.5 -556 69.5 -556 73 -561 C75.5 -564.5 75.5 -564.5 78 -568 C81 -572 81 -572 84.5 -577 C87 -580 87 -580 89.5 -583 C92.5 -587 92.5 -587 96 -592 C98.5 -595.5 98.5 -595.5 101 -599 C104 -603 104 -603 107.5 -608 C110 -611 110 -611 112.5 -614 C115.5 -618 115.5 -618 119 -623 C121.5 -626.5 121.5 -626.5 124 -630 C127 -634 127 -634 130.5 -639 C133 -642 133 -642 135.5 -645 C138.5 -649 138.5 -649 142 -654 C144.5 -657.5 144.5 -657.5 147 -661 C150 -665 150 -665 153.5 -670 C156 -673 156 -673 158.5 -676 C161.5 -680 161.5 -680 165 -685 C167.5 -688.5 167.5 -688.5 170 -692 C173 -696 173 -696 176.5 -701 C179 -704 179 -704 181.5 -707 C184.5 -711 184.5 -711 188 -716 C190.5 -719.5 190.5 -719.5 193 -723 C196 -727 196 -727 199.5 -732 C202 -735 202 -735 204.5 -738 C207.5 -742 207.5 -742 211 -747 C213.5 -750.5 213.5 -750.5 216 -754 C219 -758 219 -758 222.5 -763 C225 -766 225 -766 227.5 -769 C230.5 -773 230.5 -773 234 -778 C236.5 -781.5 236.5 -781.5 239 -785 C242 -789 242 -789 245.5 -794 C248 -797 248 -797 250.5 -800 C253.5 -804 253.5 -804 257 -809 C259.5 -812.5 259.5 -812.5 262 -816 C265 -820 265 -820 268.5 -825 C271 -828 271 -828 273.5 -831 C276.5 -835 276.5 -835 280 -840 C282.5 -843.5 282.5 -843.5 285 -847 C288 -851 288 -851 291.5 -856 C294 -859 294 -859 296.5 -862 C299.5 -866 299.5 -866 303 -871 C305.5 -874.5 305.5 -874.5 308 -878 C311 -882 311 -882 314.5 -887 C317 -890 317 -890 319.5 -893 C322.5 -897 322.5 -897 326 -902 C328.5 -905.5 328.5 -905.5 331 -909 C334 -913 334 -913 337.5 -918 C340 -921 340 -921 342.5 -924 C345.5 -928 345.5 -928 349 -933 C351.5 -936.5 351.5 -936.5 354 -940 C357 -944 357 -944 360.5 -949 C363 -952 363 -952 365.5 -955 C368.5 -959 368.5 -959 372 -964 C374.5 -967.5 374.5 -967.5 377 -971 C380 -975 380 -975 383.5 -980 C386 -983 386 -983 388.5 -986 C391.5 -990 391.5 -990 395 -995 C397.5 -998.5 397.5 -998.5 400 -1002 Z " fill="#0C0C0C" transform="translate(640,878)"/>
</svg>
